<?xml version="1.0" encoding="UTF-8"?>
<!DOCTYPE svg PUBLIC "-//W3C//DTD SVG 1.1//EN" "http://www.w3.org/Graphics/SVG/1.1/DTD/svg11.dtd">
<!-- Creator: CorelDRAW (Versão OEM) -->
<svg xmlns="http://www.w3.org/2000/svg" xml:space="preserve" width="193.864mm" height="68.7493mm" version="1.1" style="shape-rendering:geometricPrecision; text-rendering:geometricPrecision; image-rendering:optimizeQuality; fill-rule:evenodd; clip-rule:evenodd"
viewBox="0 0 19375.85 6871.2"
 xmlns:xlink="http://www.w3.org/1999/xlink"
 xmlns:xodm="http://www.corel.com/coreldraw/odm/2003">
 <defs>
  <style type="text/css">
   <![CDATA[
    .str0 {stroke:#ED3237;stroke-width:7.62;stroke-miterlimit:22.9256}
    .fil1 {fill:#373435}
    .fil0 {fill:#ED3237}
    .fil2 {fill:#373435;fill-rule:nonzero}
   ]]>
  </style>
 </defs>
 <g id="Camada_x0020_1">
  <metadata id="CorelCorpID_0Corel-Layer"/>
  <path class="fil0 str0" d="M19231.97 5173.56c-4888.04,-171.85 -9716.52,251.48 -14568.7,1268.87 -126.07,26.44 -161.84,16.89 -120.32,-64.18l84.22 -164.44c90.79,-177.25 212.94,-176.16 359.52,-202.96 4832.04,-883.41 9551.13,-1215.98 14253.32,-945.66 166.81,9.59 187.98,115.26 -8.04,108.36z"/>
  <g>
   <path class="fil1" d="M11798.78 1620.98c-52.03,35.35 -107.36,53.75 -201.22,70.39 -175.03,31.01 -122.94,-59.35 -77.97,-129.3 102.34,-159.15 216.71,-338.19 320.17,-517.38 72.86,-126.18 74.23,-129.26 156.25,-131.16l197.22 -4.6c202.47,-4.71 224.05,186.17 157.32,271.24 -101.79,129.73 -359.56,310.19 -551.77,440.8zm-5632.97 3216.35c169.55,-68.88 349.11,-156.47 564.03,-288.17 720.95,-441.83 724.63,-979.58 -78.52,-388.05 -181.83,133.91 -357.93,318.04 -448.12,508.16 -22.09,46.56 -34.72,105.69 -37.4,168.06zm3830.49 -461.96c-76.16,48.02 -152.7,97.86 -229.37,150.8 -380.26,262.59 -1013.82,559.94 -1362.48,256.62 -51.56,-44.87 -92.05,-93.77 -122.87,-145.95 -222.11,161.86 -453.57,316.12 -692.47,466.69 -469.35,295.77 -1214.18,705.52 -1653.59,366.89 -107.79,-83.06 -171.81,-180.07 -204.42,-281.08 -29.95,10.08 -60.47,20.39 -91.56,30.95 -78.51,26.71 -172.09,47.07 -306.48,11.05 -101.74,-27.27 -17.45,-99.5 18.22,-112.39 127.26,-46.04 242.56,-83.6 352.44,-119.26 2.64,-176.88 76.58,-347.36 157.65,-459.77 155.72,-215.87 323.09,-406.49 526.63,-563.61 171.51,-132.39 414.5,-281.4 645.38,-355.18 525.43,-167.86 845.79,227.98 502.1,597 -163.48,175.52 -441.83,360.63 -616.46,462.64 -279.41,163.21 -504.41,264.23 -729.4,349.14 34.31,111.41 105.5,200.97 216.86,207.58 425.13,25.24 870.49,-154.31 1219.59,-401.91 199.66,-141.61 392.5,-285.44 578.77,-433.74 -47.42,-413.91 268.07,-934.45 462.35,-1311.46 378.14,-733.83 839.36,-1192.98 1423.11,-1776.74 398.34,-398.34 785.78,-247.71 674.63,167.13 -223.23,833.07 -752.48,1458.01 -1303.83,2093.82 -248.09,286.09 -520.86,542.94 -813.45,780.9 15.36,68.29 46.78,126.59 98.96,170.68 231.82,195.84 670.99,-70.75 965.35,-219.95 69.73,-35.34 137.69,-72.34 204.32,-110.79 -41.45,-202.85 28.12,-488.68 241.65,-885.91 120.44,-224.07 543.03,-665.54 797.42,-812.66 445.37,-257.6 900.66,-118.07 645.54,432.01 -115.25,248.49 -337.15,513.38 -502.02,674.73 -228.51,223.62 -476.76,386.88 -734.5,545.58 33.45,70.16 88.09,122.91 166.3,150.92 581.17,208.16 1223.01,-403.92 1594.65,-824.81 111.82,-126.65 147.78,-68.1 73.32,67.21 -401.49,729.58 -1140.91,1220.82 -1820.71,1050.88 -169.79,-42.45 -300.95,-111.71 -381.63,-218.01l0.02 0zm327.09 -439.27c95.16,-65.44 189.8,-133.21 285.57,-202.51 219.5,-158.85 430.84,-356.32 559.71,-587.93 173.83,-312.45 186.17,-660.17 -326.41,-189.7 -169.24,155.33 -324.26,339.04 -415.46,549.87 -65.72,151.96 -102.24,301.51 -103.39,430.27zm-1656.25 75.27c214.5,-192.82 419.55,-395.24 615.64,-611.38 416.67,-459.29 767.63,-972.26 1023.93,-1537 161.43,-355.67 -19.72,-371.98 -264.84,-92.33 -393.91,449.38 -802.78,907.22 -1057,1448.02 -104.39,222.07 -253.73,525.36 -317.74,792.68zm-5575.46 602.62c-192.71,497.54 -365.61,1006.53 -483.4,1552.93 -53.25,246.97 32.56,435.37 287,398.8 91.9,-13.21 163.36,-29.23 260.93,-75.63 85.53,-40.66 101.63,-94.74 108.44,-155.94 77.19,-694.6 212.25,-1279.85 372.23,-1777.75 763.76,-132.71 1638.89,-469.66 2265.45,-777.87 1207.89,-594.21 2931.71,-1664.25 2931.71,-2802.57 0,-851.49 -1469.66,-1114.1 -2699.64,-910.53 -1460.06,241.67 -2804.03,785.9 -3986.62,1591.33 -925.91,630.62 -2045.11,1724.34 -2146.65,2585.91 -7.59,64.37 23.66,140.07 75.21,179.37 79.51,60.59 222.26,71.59 321.98,64.54 149.74,-10.57 124.62,-100.47 120.66,-191.03 -34.81,-796.8 1061.28,-1743.48 1881.32,-2302.67 1129.17,-769.94 2452.24,-1346.9 3800.35,-1571.59 847.35,-141.23 2217.86,-98.32 2217.86,579.84 0,905.18 -1555.6,1950.6 -2652.73,2493.28 -513.23,253.85 -1327.99,567.47 -2014.06,729.55 96.66,-261.14 198.93,-495.65 300.72,-707.6 122.46,-255 57.86,-377.87 -221.25,-438.2 -101.03,-21.83 -111.62,-12.84 -152.69,90.88 -153.65,388.11 -316.08,767.93 -470.71,1151.55 -370.39,37.71 -637.78,-11.39 -689.09,-202.86 -138.38,-516.56 820.27,-1191.1 1435.09,-1594.53 758.13,-497.46 1445.84,-860.49 2404.39,-1272.55 126.22,-54.26 137.48,-117.61 -74.59,-149.19 -88.95,-13.25 -181.42,-23.41 -281.37,-28.55 -137.19,-7.06 -156.22,11.89 -348.54,94.86 -686.15,295.99 -1382.56,546.68 -2204.65,1127.19 -646.59,456.58 -1697.04,1422.88 -1334.41,1964.29 179.19,267.53 536.67,365.21 977.05,354.73z"/>
  </g>
  <path class="fil2" d="M12980.23 4549.24c201.18,0 363.01,-30.61 454.86,-75.81l48.11 -298.87c-84.56,27.69 -233.27,55.4 -390.73,55.4 -196.81,0 -287.2,-53.94 -287.2,-189.53 0,-212.86 131.22,-311.99 374.69,-311.99 157.45,0 313.44,33.53 367.39,53.94l49.57 -316.37c-58.32,-36.44 -255.13,-71.43 -462.17,-71.43 -526.29,0 -739.15,262.42 -739.15,695.42 0,306.15 183.69,459.23 584.62,459.23zm1612.3 -23.33l433 0 -225.98 -1108.01 -568.58 0 -577.34 1108.01 421.33 0 80.19 -170.57 408.22 0 29.16 170.57zm-132.68 -829.55l69.98 415.5 -265.34 0 195.35 -415.5zm1215.76 829.55l49.55 -319.28 320.76 0c291.57,0 486.94,-161.83 486.94,-485.49 0,-215.76 -139.96,-303.25 -370.31,-303.25l-710 0 -174.96 1108.01 398.02 0zm91.84 -594.83l36.45 -223.06 247.85 0c62.7,0 97.68,29.16 97.68,84.56 0,80.19 -52.48,138.49 -137.04,138.49l-244.94 0zm1658.96 594.83l433 0 -225.98 -1108.01 -568.58 0 -577.34 1108.01 421.34 0 80.19 -170.57 408.22 0 29.15 170.57zm-132.68 -829.55l69.99 415.5 -265.34 0 195.34 -415.5zm1320.72 403.84c137.05,8.75 176.4,20.42 176.4,59.78 0,55.4 -55.4,78.73 -231.8,78.73 -205.56,0 -377.61,-40.82 -449.04,-74.36l-46.64 301.8c88.91,49.57 311.98,83.09 511.72,83.09 395.09,0 607.94,-109.34 607.94,-434.44 0,-179.34 -113.71,-243.49 -485.49,-263.89 -119.55,-7.3 -160.36,-21.87 -160.36,-67.06 0,-62.7 80.19,-81.65 193.89,-81.65 236.19,0 408.22,46.65 484.03,81.65l48.11 -306.16c-64.15,-42.28 -259.51,-83.09 -511.72,-83.09 -451.95,0 -600.66,163.28 -600.66,416.95 0,246.39 214.31,272.62 463.62,288.66z"/>
  <path class="fil2" d="M8608.98 6836.53l2 -196.48 193.06 -27.94c175.48,-25.42 278.94,-139.83 250.73,-334.61 -18.8,-129.87 -110.66,-170.31 -249.29,-150.25l-427.29 61.9 -8.73 682.06 239.52 -34.67zm3.43 -365.99l2.51 -137.42 149.16 -21.61c37.74,-5.45 61.34,9.04 66.16,42.37 6.98,48.26 -19.52,87.94 -70.42,95.31l-147.41 21.35zm1516.67 167.05l-116.97 -219.76c88.91,-54.58 128.38,-155.85 113.91,-274.65 -15.87,-130.26 -109.21,-170.68 -250.9,-153.44l-455.87 55.53 -24.14 681.7 240.25 -29.26 7.7 -208.13 127.62 -15.55 79.44 197.52 278.97 -33.96zm-481.01 -312.07l4.6 -130.94 171.62 -20.91c34.32,-4.18 56.4,8.31 60.25,39.99 6.02,49.28 -25.24,86.14 -69.23,91.5l-167.23 20.36zm858.29 -408.98l-34.47 681.24 659.42 -70.18 7.83 -169.34 -417.87 44.48 4.54 -91.41 357.04 -38.02 7.62 -163.05 -357.05 37.99 3.88 -80.67 409.08 -43.54 8.84 -176.57 -648.84 69.07zm1000.83 571.69l227.07 -18.95 21.41 -468.85 0.86 -0.08 117.77 441.23 219.98 -18.35 180.94 -465.24 1.78 -0.15 -48.87 470.25 231.49 -19.31 50 -680.3 -341.9 28.51 -171.95 487.64 -104.58 -464.56 -333.97 27.84 -50.02 680.3zm1581.34 -124.62l60.42 -679.46 -241.47 16.43 -60.42 679.46 241.47 -16.43zm905.41 -107.68l-5.17 53.53 231.08 -12.16 70.79 -678.46 -242.59 12.78 -47.37 449.06c-32.75,18.59 -88.2,44.59 -164.33,48.6 -67.29,3.55 -92.64,-22.65 -94.93,-66.01 -0.41,-7.99 0.04,-15.99 1.08,-30.25l39.96 -387.41 -240.81 12.69 -45.61 432.1c-2.36,22.32 -2.97,44.55 -1.86,65.77 6.3,119.54 74.79,189.62 246.55,180.56 110.67,-5.83 194.11,-39.51 253.2,-80.8zm607.72 19.8l227.74 -6.75 46.46 -467.05 0.88 -0.03 93.98 446.91 220.66 -6.54 205.58 -454.91 1.77 -0.05 -73.95 466.97 232.17 -6.9 86.36 -676.62 -342.95 10.15 -197.8 477.74 -79.56 -469.5 -334.98 9.92 -86.36 676.64z"/>
  <path class="fil2" d="M12886.27 3152.04c243.87,0 335.41,-179.15 335.41,-383.56 0,-140.46 -69.44,-216.24 -255.69,-216.24l-351.21 0 -94.69 599.8 366.18 0zm-126.27 -155.47l46.56 -288.06 115.23 0c56.83,0 82.08,23.67 82.08,80.5 0,128.64 -49.72,207.57 -131,207.57l-112.87 0zm1040.9 155.47l234.39 0 -122.32 -599.8 -307.8 0 -312.52 599.8 228.08 0 43.42 -92.33 220.98 0 15.78 92.33zm-71.82 -449.06l37.88 224.93 -143.63 0 105.75 -224.93zm714.94 218.6c74.19,4.74 95.5,11.06 95.5,32.37 0,29.98 -29.99,42.62 -125.48,42.62 -111.28,0 -204.41,-22.11 -243.08,-40.26l-25.26 163.37c48.13,26.83 168.89,44.98 277.01,44.98 213.87,0 329.1,-59.19 329.1,-235.18 0,-97.08 -61.57,-131.79 -262.81,-142.84 -64.71,-3.95 -86.81,-11.83 -86.81,-36.3 0,-33.93 43.41,-44.21 104.97,-44.21 127.84,0 220.96,25.26 262.01,44.21l26.05 -165.73c-34.72,-22.9 -140.47,-45 -277.01,-45 -244.66,0 -325.15,88.4 -325.15,225.72 0,133.38 116.01,147.58 250.96,156.26z"/>
 </g>
</svg>
